<svg width="24" height="24" viewBox="0 0 24 24" fill="none" xmlns="http://www.w3.org/2000/svg">
<path d="M8.707 19.7069L18 10.4139L13.586 5.99988L4.293 15.2929C4.16506 15.421 4.07418 15.5813 4.03 15.7569L3 20.9999L8.242 19.9699C8.418 19.9259 8.579 19.8349 8.707 19.7069V19.7069ZM21 7.41388C21.3749 7.03882 21.5856 6.53021 21.5856 5.99988C21.5856 5.46955 21.3749 4.96093 21 4.58588L19.414 2.99988C19.0389 2.62494 18.5303 2.41431 18 2.41431C17.4697 2.41431 16.9611 2.62494 16.586 2.99988L15 4.58588L19.414 8.99988L21 7.41388Z" fill="#6933FF"/>
</svg>
